<?xml version="1.0" encoding="utf-8"?>
<!-- Generator: Adobe Illustrator 27.0.0, SVG Export Plug-In . SVG Version: 6.00 Build 0)  -->
<svg version="1.1" id="Calque_1" xmlns="http://www.w3.org/2000/svg" xmlns:xlink="http://www.w3.org/1999/xlink" x="0px" y="0px"
	 viewBox="0 0 288.36 185.65" style="enable-background:new 0 0 288.36 185.65;" xml:space="preserve">
<style type="text/css">
	.st0{fill:#FFFFFF;}
</style>
<g>
	<path class="st0" d="M221.59,0.06c-25.21,23.3-24.74,35.91,1.86,57.11c13.53,10.78,28.27,20.1,41.4,31.32
		c21.14,18.07,28.86,46.24,19.71,66.9c-8.36,18.88-33.25,32.24-56.64,30.01c1.09-0.96,1.8-1.73,2.64-2.29
		c26.64-17.71,27.6-35.13,2.19-54.98c-14.69-11.47-30.46-21.55-45.48-32.6c-20.84-15.33-29.79-37.66-23.77-58.1
		c6.05-20.54,26.26-35.8,49.55-37.35C215.49-0.08,217.96,0.06,221.59,0.06z"/>
	<path class="st0" d="M73.04,4.56c16.57,0,33.01-0.09,49.45,0.17c1.32,0.02,3.16,2.15,3.81,3.69
		c15.79,37.41,32.02,74.67,46.62,112.54c2.57,6.68-0.89,16.27-3.11,24.07c-3.46,12.14-8.1,23.96-12.64,35.76
		c-0.79,2.05-3.36,4.2-5.47,4.68c-1.44,0.32-4.45-1.8-5.17-3.5C121.91,123.53,97.48,65.02,73.06,6.5
		C72.89,6.09,73.04,5.55,73.04,4.56z"/>
	<path class="st0" d="M0,4.55c16.66,0,32.96-0.1,49.25,0.17c1.44,0.02,3.46,2.24,4.15,3.88c15.74,37.25,31.89,74.35,46.43,112.07
		c2.59,6.71-0.63,16.3-2.84,24.09c-3.49,12.3-8.24,24.26-12.86,36.21c-0.78,2.02-3.44,4.12-5.55,4.53c-1.45,0.29-4.37-1.9-5.09-3.62
		C48.96,123.59,24.61,65.23,0.25,6.87C0.07,6.44,0.14,5.91,0,4.55z"/>
</g>
</svg>